<svg height="512" viewBox="0 0 512 512" width="512" xmlns="http://www.w3.org/2000/svg"><g id="Flat"><path d="m48 408h376v48h-376z" fill="#ebebe9"/><path d="m424 408h48v48h-48z" fill="#c7c7c5"/><rect fill="#7eb457" height="32" rx="16" width="464" x="24" y="456"/><path d="m472 456h-88a16 16 0 0 1 16 16 16 16 0 0 1 -16 16h88a16 16 0 0 0 16-16 16 16 0 0 0 -16-16z" fill="#79ad54"/><path d="m420.68 84.206a176.3 176.3 0 0 0 -132.68-60.206h-56a176.3 176.3 0 0 0 -132.68 60.206l-3.32 3.794v320h328v-320z" fill="#c7c7c5"/><path d="m368 88v320h-272v-320l3.32-3.79a176.3 176.3 0 0 1 265.36 0z" fill="#e0e0de"/><path d="m368 98.74v309.26h-272v-86.72c105.32-28.45 205.41-94.89 272-222.54z" fill="#dbdbd9"/><path d="m288 136h-40v-40h-32v40h-40v32h40v88h32v-88h40z" fill="#ffb531"/><g fill="#c7c7c5"><path d="m144 296h32v16h-32z"/><path d="m160 328h88v16h-88z"/><path d="m192 296h128v16h-128z"/><path d="m264 328h40v16h-40z"/><path d="m344 128h48v16h-48z"/><path d="m344 232h32v16h-32z"/></g><path d="m368 296h24v16h-24z" fill="#bfbfbd"/><path d="m120 136h24v16h-24z" fill="#c7c7c5"/><path d="m152 72h16v16h-16z" fill="#c7c7c5"/><path d="m128 360h16v16h-16z" fill="#c7c7c5"/><path d="m160 408h16v24h-16z" fill="#d6d6d4"/><path d="m344 432h16v24h-16z" fill="#d6d6d4"/></g></svg>